<svg id="Capa_1" data-name="Capa 1" xmlns="http://www.w3.org/2000/svg" viewBox="0 0 50 50"><defs><style>.cls-1{fill:#ffba01;}.cls-2{fill:none;}.cls-3{fill:#3c4244;}</style></defs><path class="cls-1" d="M28.17,31.87c.71.74,1,.92,1.68,1.66h0l-.2-.89h0a1.54,1.54,0,0,1,.23.12,7.34,7.34,0,0,1,1,1h0c.37.32.51.38.55.59a1.06,1.06,0,0,1-.05.45l-.12.67-1.14-1.57h0l.11.91h0C29.36,33.62,29,33,28.17,31.87Z"/><path class="cls-1" d="M21,31.91c-.72.74-1,.92-1.68,1.66h0l.19-.89h0a1.31,1.31,0,0,0-.24.12,6.77,6.77,0,0,0-1,1h0c-.38.32-.52.38-.56.59a1.28,1.28,0,0,0,.05.45l.13.67,1.14-1.57h0l-.11.91h0C19.82,33.66,20.19,33.06,21,31.91Z"/><path class="cls-1" d="M35.3,19.73l9.61-.39c2-3.28,2.14-7.1.31-9.76a7.59,7.59,0,0,0-3.48-2.71,7.94,7.94,0,0,1,1.16,4c0,.53.05,3.65-1.78,4.73-.46.26-.78.26-3.1.31l-3.57.07Z"/><path class="cls-1" d="M13.76,19.93l-9.61-.39c-2-3.29-2.14-7.11-.31-9.77A7.63,7.63,0,0,1,7.33,7.06a8,8,0,0,0-1.17,4c0,.53,0,3.66,1.79,4.73.45.27.78.26,3.1.31l3.56.08Z"/><rect class="cls-2" x="-1.82" y="8.26" width="55.11" height="52.55"/><path class="cls-1" d="M34.92,28.68c-.37.47-4,4.91-9.92,4.65a12.17,12.17,0,0,1-10.62-7.67l1.55-8.83,17.59,1Z"/><path class="cls-3" d="M34.59,23.81a10.44,10.44,0,0,1,.3,5.16,5,5,0,0,1-.82,1.42,6.75,6.75,0,0,1-.83.86,5.36,5.36,0,0,0-1.59,2.83c0,.14-.07.28-.11.41s0,.07-.07.14l-1.63-1.89-.09.08c.34.52.7,1,1,1.56a6.33,6.33,0,0,1,1.07,2.52,4.72,4.72,0,0,1,0,.92,1,1,0,0,1-.67.91.69.69,0,0,0-.49.54,2.66,2.66,0,0,1-3.48,1.91c.06-.49.22-.63.68-.73a5.15,5.15,0,0,0,1.17-.37,1.35,1.35,0,0,0,.71-1.15,7.09,7.09,0,0,0-.94.16,3.64,3.64,0,0,0-2.26,1.76.4.4,0,0,1-.42.24c-1,0-2.07,0-3.1,0a.46.46,0,0,1-.48-.28,3.79,3.79,0,0,0-3.16-1.87,1.35,1.35,0,0,0,.92,1.28,8.2,8.2,0,0,0,1,.23c.42.1.55.24.64.71a2.66,2.66,0,0,1-3.47-1.85.68.68,0,0,0-.52-.59,1,1,0,0,1-.66-1A4.41,4.41,0,0,1,18,35.11c.46-.78,1-1.53,1.45-2.29l-.08-.07-1.62,1.84c-.05-.15-.12-.3-.16-.46a5.26,5.26,0,0,0-1.77-3,4.73,4.73,0,0,1-1.68-4.53c.09-.74.22-1.48.34-2.22a2.56,2.56,0,0,1,.14-.4c.58.3,1.12.57,1.65.86a.41.41,0,0,1,.14.25c.06.23.09.48.15.72a2.91,2.91,0,0,0,2.58,2.42,13.43,13.43,0,0,0,1.54.17c.26,0,.38.11.39.35s0,.7.05,1.05a8.25,8.25,0,0,0,.05,1,3.74,3.74,0,0,0,.17-.54c.07-.58.11-1.16.2-1.73a.8.8,0,0,1,.22-.5A3,3,0,0,0,22.59,25a3.34,3.34,0,0,1-.17.71A8.18,8.18,0,0,1,21.74,27c-.17.23-.39.22-.56-.1a5.43,5.43,0,0,0-2.82-2.37,13.87,13.87,0,0,0-1.63-.6,2.33,2.33,0,0,1-1.8-1.83,2.73,2.73,0,0,1,1.1-2.7,10,10,0,0,1,1.78-.92c.19-.09.39-.15.59-.23l0-.14-2.77.63a17.65,17.65,0,0,0,0-1.78,1,1,0,0,1,.66-1.11,9.71,9.71,0,0,1,6.27-1,11.69,11.69,0,0,0,4.17,0A9.46,9.46,0,0,1,33.15,16a.79.79,0,0,1,.47.83c0,.64,0,1.29,0,2l-2.75-.66-.05.15c.19.07.38.13.56.21.48.22,1,.41,1.44.67a2.92,2.92,0,0,1,1.46,2.09,2.23,2.23,0,0,1-1.53,2.62c-.73.29-1.48.54-2.2.85A5,5,0,0,0,28,26.92c-.15.28-.32.25-.52.09a2.64,2.64,0,0,1-.79-1.56.64.64,0,0,0-.11-.3,3,3,0,0,0,.79,2.79,1.12,1.12,0,0,1,.28.59c.09.56.12,1.13.2,1.69a1.08,1.08,0,0,0,.23.53v-.44c0-.43,0-.87,0-1.31s0-.57.62-.63a14.1,14.1,0,0,0,1.84-.29,2.58,2.58,0,0,0,1.94-1.82,1.39,1.39,0,0,0,.13-.44,1.29,1.29,0,0,1,1.09-1.34C34,24.4,34.25,24.09,34.59,23.81Z"/><path class="cls-3" d="M21,42c.4,0,.79-.09,1.19-.09,1.88,0,3.76,0,5.64.07.42,0,.53.16.3.52a2,2,0,0,1-.77.76,6.31,6.31,0,0,1-5.42.06,1.46,1.46,0,0,1-1-1.09A1.11,1.11,0,0,1,21,42Z"/><path class="cls-3" d="M17.23,25.05a4.81,4.81,0,0,1,3.32,2.36C18.56,27.72,17.18,26.79,17.23,25.05Z"/><path class="cls-3" d="M28.68,27.43C28.77,26.62,31,25,32,25.06,32.05,26.76,30.7,27.7,28.68,27.43Z"/><path class="cls-3" d="M43.13,26.77s0,.05,0,.06a5.17,5.17,0,0,1-5.18,1.52A5.57,5.57,0,0,1,35.86,27a.93.93,0,0,1-.21-.46c-.15-.68-.26-1.37-.42-2,0-.25,0-.37.23-.45a.9.9,0,0,1,.27-.07,4.52,4.52,0,0,1,2,.33c1.67.79,3.38,1.52,5.07,2.28Zm-6-2c1,1.41,3.7,2.57,4.72,2.09Z"/><path class="cls-1" d="M37.11,24.77l4.72,2.09C40.81,27.34,38.13,26.18,37.11,24.77Z"/><path class="cls-3" d="M6.31,25.83l3.31-.94c.83-.23,1.66-.51,2.51-.69a2.83,2.83,0,0,1,1.87.23c.15.07.16.16.1.33-.25.65-.48,1.31-.72,2a.79.79,0,0,1-.21.34A4.51,4.51,0,0,1,9.29,28,5.82,5.82,0,0,1,6.31,25.83Zm1.24.24a5.29,5.29,0,0,0,4.84-1.33Z"/><path class="cls-1" d="M7.55,26.07l4.84-1.33A5.29,5.29,0,0,1,7.55,26.07Z"/><path class="cls-3" d="M34,15.18c.86.05,1.71.11,2.56.13a10.48,10.48,0,0,0,4.08-.55,2.79,2.79,0,0,0,2.12-3A6.57,6.57,0,0,0,40.25,6.5a14.35,14.35,0,0,1-1.19-1.07h.39a8.72,8.72,0,0,1,4.7,1.79,9.35,9.35,0,0,1,3.78,5.06,6.83,6.83,0,0,1-2.23,7.31,9.08,9.08,0,0,1-5.11,2.2,40.51,40.51,0,0,1-6.05.17c0-.28.05-.53.11-.77a4.22,4.22,0,0,0-.23-2.36A7.17,7.17,0,0,1,34,15.18ZM42.09,7,42,7.11c.16.22.32.43.47.65a7.66,7.66,0,0,1,1.26,2.77A4.26,4.26,0,0,1,41,15.88a6.9,6.9,0,0,1-1.84.41c-1.14.08-2.29.06-3.44.08-.64,0-.82.2-.78.84a1.27,1.27,0,0,0,.18.42,4.83,4.83,0,0,1,.39.79c.08.26.22.32.47.32a19.44,19.44,0,0,0,5.1-.59,6,6,0,0,0,3.59-2.53,5,5,0,0,0,.6-4.4A8.59,8.59,0,0,0,42.09,7Z"/><path class="cls-3" d="M15.14,15.31c-.09,1.21.19,2.41-.39,3.56a3.72,3.72,0,0,0-.27,2.46c0,.24.07.48.1.72-1.67,0-3.29,0-4.91,0A10.29,10.29,0,0,1,6,21.33a7.68,7.68,0,0,1-5-5.42,6.8,6.8,0,0,1,.88-5.29A10.26,10.26,0,0,1,9,5.64c.34-.06.68-.06,1-.09l0,.11-.68.53A8.36,8.36,0,0,0,6.89,9.11a6.41,6.41,0,0,0-.54,3.4,2.75,2.75,0,0,0,2,2.38,10.87,10.87,0,0,0,4.2.56C13.39,15.42,14.24,15.36,15.14,15.31Zm-1.09,1.22h-.89a17.32,17.32,0,0,1-4.43-.31,4.29,4.29,0,0,1-3.42-5.07A7.88,7.88,0,0,1,6.88,7.58l.25-.37a8.45,8.45,0,0,0-3.29,4.3,4.86,4.86,0,0,0,.62,4.22A6,6,0,0,0,8.1,18.31a18.33,18.33,0,0,0,4.6.56c.81,0,.81,0,1.15-.73a.45.45,0,0,1,.08-.17A1.21,1.21,0,0,0,14.05,16.53Z"/><path class="cls-1" d="M22.94,24,25,20.5H23.27l4.14-4.29.08.06-.57,1.17-.84,1.67s-.43.87-.53.83,0-.16-.07-.16-.08.1-.14.11-.11-.07-.14-.12l2.28-.24Z"/><rect class="cls-2" x="-10.17" y="3.43" width="75.18" height="48.98"/></svg>